<svg width="39" height="39" viewBox="0 0 39 39" fill="none" xmlns="http://www.w3.org/2000/svg">
<path fill-rule="evenodd" clip-rule="evenodd" d="M19.3455 38.6909C30.0296 38.6909 38.6909 30.0296 38.6909 19.3455C38.6909 8.66125 30.0296 0 19.3455 0C8.66125 0 0 8.66125 0 19.3455C0 30.0296 8.66125 38.6909 19.3455 38.6909ZM22.9303 8.00343C24.9229 8.34037 26.8283 8.93291 28.6059 9.73459C28.6214 9.74077 28.6342 9.75231 28.6419 9.76712C31.7917 14.3239 33.3463 19.4663 32.7654 25.3847C32.764 25.3972 32.76 25.4093 32.7535 25.4201C32.7471 25.431 32.7385 25.4403 32.7282 25.4475C30.6155 26.9867 28.2578 28.1577 25.7547 28.911C25.7371 28.9163 25.7183 28.916 25.7008 28.9101C25.6833 28.9043 25.6681 28.8932 25.6571 28.8784C25.1308 28.1569 24.6521 27.3971 24.2339 26.5989C24.2282 26.5879 24.2249 26.5758 24.2242 26.5634C24.2236 26.551 24.2256 26.5387 24.2301 26.5271C24.2346 26.5156 24.2415 26.5051 24.2504 26.4964C24.2592 26.4878 24.2699 26.4811 24.2815 26.4769C25.0402 26.1957 25.7629 25.8576 26.4577 25.4579C26.47 25.4506 26.4804 25.4403 26.4878 25.4279C26.4953 25.4156 26.4995 25.4016 26.5002 25.3872C26.5009 25.3728 26.498 25.3585 26.4918 25.3455C26.4856 25.3325 26.4763 25.3212 26.4646 25.3127C26.3171 25.2047 26.1718 25.092 26.0324 24.9781C26.0196 24.9679 26.0043 24.9616 25.988 24.9597C25.9718 24.9579 25.9554 24.9606 25.9406 24.9676C21.4315 27.0172 16.4901 27.0172 11.9275 24.9676C11.9128 24.961 11.8966 24.9586 11.8806 24.9606C11.8646 24.9627 11.8495 24.9691 11.8369 24.9793C11.6975 25.092 11.5511 25.2047 11.4047 25.3127C11.3932 25.3214 11.384 25.3328 11.378 25.3459C11.372 25.359 11.3693 25.3734 11.3702 25.3878C11.3711 25.4022 11.3756 25.4162 11.3833 25.4284C11.3909 25.4406 11.4015 25.4508 11.414 25.4579C12.1112 25.8543 12.8384 26.1954 13.589 26.4781C13.6378 26.4966 13.661 26.5524 13.6366 26.5989C13.2276 27.3982 12.749 28.1593 12.2122 28.8796C12.2008 28.8939 12.1855 28.9044 12.168 28.9098C12.1506 28.9152 12.132 28.9152 12.1146 28.9098C9.61583 28.1544 7.26198 26.984 5.1516 25.4475C5.14157 25.4398 5.13321 25.4302 5.12702 25.4192C5.12083 25.4083 5.11694 25.3961 5.11558 25.3836C4.62877 20.2645 5.61983 15.0803 9.23551 9.7648C9.24442 9.75079 9.25739 9.73985 9.27269 9.73343C11.0515 8.93059 12.9569 8.33804 14.9483 8.0011C14.9663 7.99825 14.9847 8.00095 15.0011 8.00884C15.0175 8.01673 15.0311 8.02943 15.0401 8.04525C15.3054 8.50793 15.5448 8.98503 15.757 9.47433C17.8703 9.15858 20.0188 9.15858 22.1321 9.47433C22.3226 9.03283 22.5945 8.47398 22.8385 8.04525C22.8476 8.02963 22.8613 8.0172 22.8777 8.00971C22.8942 8.00222 22.9125 8.00002 22.9303 8.00343ZM11.8125 19.5011C11.8125 21.0243 12.9453 22.2663 14.3186 22.2663C15.714 22.2663 16.8247 21.0255 16.8247 19.5011C16.8468 17.9872 15.7245 16.7359 14.3186 16.7359C12.9232 16.7359 11.8125 17.9768 11.8125 19.5011ZM21.0783 19.5011C21.0783 21.0243 22.2099 22.2663 23.5844 22.2663C24.9914 22.2663 26.0905 21.0255 26.0905 19.5011C26.1126 17.9872 24.9902 16.7359 23.5844 16.7359C22.1878 16.7359 21.0783 17.9768 21.0783 19.5011Z" fill="white"/>
</svg>
