<svg width="39" height="39" viewBox="0 0 39 39" fill="none" xmlns="http://www.w3.org/2000/svg">
<path fill-rule="evenodd" clip-rule="evenodd" d="M38.3517 19.084C38.3517 29.6233 29.8069 38.1681 19.2676 38.1681C8.72839 38.1681 0.183594 29.6233 0.183594 19.084C0.183594 8.5448 8.72839 0 19.2676 0C29.8091 0 38.3517 8.5448 38.3517 19.084ZM9.59856 19.7254L9.68089 19.5959L14.6454 11.8296C14.718 11.7159 14.8885 11.7276 14.9434 11.8512C15.7728 13.7099 16.4885 16.0216 16.1532 17.4608C16.0101 18.0529 15.6179 18.8548 15.1767 19.5959C15.1199 19.7038 15.0572 19.8097 14.9905 19.9116C14.9591 19.9587 14.9062 19.9861 14.8493 19.9861H9.74363C9.60638 19.9861 9.526 19.8371 9.59856 19.7254ZM31.7277 22.3979V21.1686C31.7277 21.0548 31.6179 20.9725 31.51 21.0039L25.7044 22.6822C25.673 22.6901 25.6456 22.7077 25.624 22.7312C25.0022 23.4181 24.4738 23.879 24.3338 24.0011L24.3241 24.0096C23.9633 24.3155 23.5162 24.4822 23.0457 24.4822H20.9438V22.3391H22.6143C22.6575 22.3391 22.6986 22.3234 22.73 22.296L22.9457 22.0979C23.0378 22.0136 23.1477 21.9117 23.279 21.7803C23.2902 21.7691 23.3015 21.7578 23.313 21.7464C23.382 21.6776 23.4557 21.6041 23.528 21.5235C23.6143 21.4391 23.6986 21.345 23.777 21.2529C23.9084 21.1117 24.0339 20.9646 24.1653 20.8097C24.2594 20.7078 24.3456 20.5921 24.43 20.4764C24.5241 20.3666 24.6162 20.2431 24.7025 20.1255C24.7346 20.0783 24.7688 20.0306 24.8037 19.9819C24.837 19.9354 24.8709 19.888 24.9044 19.8392C24.9672 19.7451 25.0299 19.6451 25.0829 19.551C25.2476 19.2961 25.3868 19.0235 25.5044 18.751C25.5584 18.6343 25.6016 18.5114 25.6435 18.3919C25.6488 18.3769 25.6541 18.362 25.6593 18.3471C25.7064 18.2079 25.7456 18.0765 25.775 17.9373C25.8456 17.6099 25.8613 17.2844 25.8299 16.9589C25.8221 16.857 25.8142 16.757 25.7907 16.6629V16.6472C25.7828 16.5805 25.7671 16.506 25.7456 16.4374C25.675 16.1197 25.5652 15.8021 25.426 15.4903C25.3789 15.3747 25.324 15.257 25.2711 15.1492C25.1456 14.9159 25.0142 14.6825 24.8652 14.4571C24.8353 14.4094 24.8023 14.3612 24.7693 14.313C24.7439 14.2759 24.7185 14.2389 24.6946 14.2022C24.6003 14.0566 24.4942 13.9163 24.3912 13.7801C24.368 13.7494 24.3449 13.7188 24.3221 13.6885C24.2613 13.6087 24.1948 13.5289 24.1278 13.4485C24.0911 13.4045 24.0543 13.3603 24.0182 13.3159C23.9162 13.1924 23.8162 13.0748 23.7143 12.9591C23.3496 12.5473 22.9673 12.1748 22.6261 11.8572C22.5633 11.7944 22.4947 11.7317 22.4241 11.6709C22.1594 11.4297 21.9183 11.2199 21.7163 11.0572C21.6556 11.0105 21.6012 10.9645 21.5506 10.9217C21.5161 10.8926 21.4834 10.865 21.4516 10.8396C21.3904 10.7939 21.3373 10.7535 21.2927 10.7195C21.2645 10.698 21.2396 10.6791 21.2183 10.6631C21.2026 10.6513 21.185 10.6435 21.1673 10.6376L20.9438 10.5749V8.72395C20.9438 8.422 20.8222 8.15142 20.6281 7.95337C20.434 7.75535 20.1635 7.63379 19.8654 7.63379C19.2694 7.63379 18.787 8.122 18.787 8.72395V9.97093L18.6753 9.9396L18.3713 9.8533L18.0949 9.77685C18.0941 9.77685 18.0933 9.77651 18.0923 9.77611C18.091 9.77555 18.0894 9.77487 18.0871 9.77487H18.0812L15.9832 9.20627C15.8911 9.18078 15.8126 9.28078 15.8597 9.36509L16.195 9.98467C16.214 10.0323 16.2381 10.0799 16.2629 10.1288C16.2789 10.1605 16.2953 10.1927 16.3107 10.2259C16.3656 10.3356 16.4205 10.4513 16.4734 10.567C16.5205 10.669 16.5675 10.769 16.6224 10.8788C16.6455 10.9304 16.669 10.9826 16.6929 11.0356C16.7805 11.2302 16.8727 11.4348 16.9636 11.6552L16.9636 11.6553C17.042 11.8415 17.1204 12.0278 17.1891 12.2219C17.3773 12.7101 17.5557 13.2316 17.7106 13.7669C17.7492 13.8867 17.78 14.0026 17.8112 14.1201C17.8244 14.1699 17.8378 14.22 17.8518 14.2708L17.8733 14.3649C17.9361 14.6139 17.991 14.861 18.0302 15.11C18.0616 15.2805 18.091 15.4433 18.1067 15.608C18.1302 15.7942 18.1537 15.9805 18.1616 16.1668C18.1773 16.3374 18.1851 16.5158 18.1851 16.6864C18.1851 17.1216 18.1459 17.5412 18.0537 17.9373C18.0479 17.9586 18.0422 17.9801 18.0364 18.0019C18.0105 18.0982 17.9838 18.1981 17.9518 18.2942C17.9228 18.397 17.8853 18.4998 17.8463 18.6066C17.8325 18.6444 17.8185 18.6826 17.8047 18.7216C17.8021 18.7285 17.7995 18.7355 17.797 18.7424C17.7681 18.8201 17.7388 18.8991 17.7028 18.9765C17.5086 19.4431 17.2675 19.9078 17.0185 20.3431C16.6538 20.9882 16.2871 21.5548 16.0303 21.9195C16.0146 21.9431 15.9992 21.9655 15.9845 21.9871C15.9661 22.014 15.9486 22.0396 15.9323 22.0646C15.8519 22.1783 15.9342 22.3391 16.0734 22.3391H18.787V24.4822H16.042C15.3048 24.4822 14.6225 24.0645 14.2931 23.3959C14.1225 23.0606 14.0558 22.692 14.0951 22.3312C14.1048 22.2234 14.0245 22.1215 13.9147 22.1215H8.36979C8.27567 22.1215 8.19922 22.1979 8.19922 22.292V22.4057C8.19922 25.9429 11.056 28.8094 14.5813 28.8094H24.528C26.3925 28.8094 27.4512 27.1104 28.4918 25.4404C28.7819 24.9749 29.0705 24.5116 29.3749 24.088C29.9219 23.3273 31.2375 22.7234 31.6218 22.5587C31.6846 22.5312 31.7277 22.4685 31.7277 22.3979Z" fill="white"/>
</svg>
