<svg width="39" height="39" viewBox="0 0 39 39" fill="none" xmlns="http://www.w3.org/2000/svg">
<path d="M19.7363 0.691406C9.24392 0.691406 0.736328 9.199 0.736328 19.6914C0.736328 30.1838 9.24392 38.6914 19.7363 38.6914C30.2287 38.6914 38.7363 30.1838 38.7363 19.6914C38.7363 9.199 30.2287 0.691406 19.7363 0.691406ZM28.8674 15.0135C28.8801 15.2128 28.8801 15.4206 28.8801 15.6242C28.8801 21.8501 24.1386 29.0218 15.4741 29.0218C12.8022 29.0218 10.3254 28.2456 8.23878 26.9097C8.62048 26.9521 8.98521 26.9691 9.37539 26.9691C11.5807 26.9691 13.608 26.2227 15.2238 24.9588C13.1542 24.9164 11.4153 23.5593 10.8216 21.6932C11.5468 21.7992 12.1999 21.7992 12.9464 21.6084C11.8807 21.3919 10.9229 20.8131 10.2355 19.9704C9.54825 19.1277 9.17388 18.073 9.17606 16.9856V16.9262C9.7995 17.2782 10.5332 17.4945 11.3008 17.5242C10.6555 17.0942 10.1263 16.5115 9.7601 15.8279C9.3939 15.1443 9.20203 14.381 9.20151 13.6055C9.20151 12.7276 9.43052 11.926 9.84191 11.2305C11.0248 12.6866 12.5008 13.8775 14.174 14.7258C15.8473 15.5741 17.6803 16.0609 19.554 16.1544C18.8881 12.9523 21.2801 10.361 24.1555 10.361C25.5127 10.361 26.7341 10.9294 27.595 11.8454C28.6595 11.6461 29.6774 11.2474 30.585 10.7131C30.233 11.803 29.495 12.7233 28.5153 13.3044C29.4653 13.2026 30.3814 12.9396 31.2296 12.5706C30.5892 13.5122 29.7877 14.3477 28.8674 15.0135V15.0135Z" fill="white"/>
</svg>
