<svg width="39" height="39" viewBox="0 0 39 39" fill="none" xmlns="http://www.w3.org/2000/svg">
<path fill-rule="evenodd" clip-rule="evenodd" d="M19.1543 38.1681C29.6936 38.1681 38.2384 29.6233 38.2384 19.084C38.2384 8.5448 29.6958 0 19.1543 0C8.61511 0 0.0703125 8.5448 0.0703125 19.084C0.0703125 29.6233 8.61511 38.1681 19.1543 38.1681ZM14.0268 25.9813C17.6919 25.9813 20.663 23.0102 20.663 19.3452C20.663 15.6801 17.6919 12.709 14.0268 12.709C10.3617 12.709 7.39062 15.6801 7.39062 19.3452C7.39062 23.0102 10.3617 25.9813 14.0268 25.9813ZM26.8567 19.3451C26.8567 23.0102 25.6683 25.9813 24.2023 25.9813C22.7362 25.9813 21.5478 23.0102 21.5478 19.3451C21.5478 15.6801 22.7362 12.709 24.2023 12.709C25.6683 12.709 26.8567 15.6801 26.8567 19.3451ZM29.0684 25.9813C29.8015 25.9813 30.3957 23.0102 30.3957 19.3452C30.3957 15.6801 29.8015 12.709 29.0684 12.709C28.3354 12.709 27.7412 15.6801 27.7412 19.3452C27.7412 23.0102 28.3354 25.9813 29.0684 25.9813Z" fill="white"/>
</svg>
