<svg width="261" height="119" viewBox="0 0 261 119" fill="none" xmlns="http://www.w3.org/2000/svg">
<path fill-rule="evenodd" clip-rule="evenodd" d="M19 9C13.4772 9 9 13.4772 9 19V75C9 80.5229 13.4772 85 19 85H209.882C209.697 93.4951 208.353 109.522 204 119C211.995 113.538 228.712 99.4107 234.298 85H251C256.523 85 261 80.5229 261 75V19C261 13.4772 256.523 9 251 9H19Z" fill="#0F1134"/>
<mask id="path-2-inside-1_11_2480" fill="white">
<path fill-rule="evenodd" clip-rule="evenodd" d="M10 0C4.47715 0 0 4.47715 0 10V66C0 71.5229 4.47716 76 10 76H200.882C200.697 84.4951 199.353 100.522 195 110C202.995 104.538 219.712 90.4107 225.298 76H242C247.523 76 252 71.5229 252 66V10C252 4.47715 247.523 0 242 0H10Z"/>
</mask>
<path fill-rule="evenodd" clip-rule="evenodd" d="M10 0C4.47715 0 0 4.47715 0 10V66C0 71.5229 4.47716 76 10 76H200.882C200.697 84.4951 199.353 100.522 195 110C202.995 104.538 219.712 90.4107 225.298 76H242C247.523 76 252 71.5229 252 66V10C252 4.47715 247.523 0 242 0H10Z" fill="white"/>
<path d="M200.882 76L202.881 76.0434L202.926 74H200.882V76ZM195 110L193.183 109.165L190.172 115.72L196.128 111.651L195 110ZM225.298 76V74H223.929L223.434 75.2771L225.298 76ZM2 10C2 5.58172 5.58172 2 10 2V-2C3.37258 -2 -2 3.37258 -2 10H2ZM2 66V10H-2V66H2ZM10 74C5.58173 74 2 70.4183 2 66H-2C-2 72.6274 3.37259 78 10 78V74ZM200.882 74H10V78H200.882V74ZM196.817 110.835C199.114 105.833 200.571 99.2313 201.483 92.9175C202.4 86.57 202.788 80.357 202.881 76.0434L198.882 75.9566C198.791 80.1381 198.414 86.1862 197.525 92.3456C196.63 98.5387 195.238 104.689 193.183 109.165L196.817 110.835ZM223.434 75.2771C220.783 82.1136 215.423 89.0193 209.622 94.9583C203.843 100.874 197.767 105.687 193.872 108.349L196.128 111.651C200.228 108.851 206.508 103.87 212.483 97.7534C218.435 91.6606 224.227 84.2971 227.163 76.7229L223.434 75.2771ZM242 74H225.298V78H242V74ZM250 66C250 70.4183 246.418 74 242 74V78C248.627 78 254 72.6274 254 66H250ZM250 10V66H254V10H250ZM242 2C246.418 2 250 5.58172 250 10H254C254 3.37258 248.627 -2 242 -2V2ZM10 2H242V-2H10V2Z" fill="#0F1134" mask="url(#path-2-inside-1_11_2480)"/>
<path d="M113.275 31.725L107 29.475L102.125 29.275L102.35 46.75L107.35 46.475L113.475 44.1L113.275 31.725ZM109.25 35.725L108.275 41.175L106.6 41.65L106.425 35.15L109.25 35.725ZM115.678 29.25L115.603 46.75H119.678L120.478 29.575L115.678 29.25ZM133.661 36.8L126.786 34.825L127.036 33.65L133.036 34.225L133.661 29.275H122.436L122.786 40.25L129.736 41.525L129.211 42.425L122.386 41.95L122.936 47L133.936 46.075L133.661 36.8ZM140.812 42.425L140.562 33.675L147.137 34.8V29.25L136.187 30.025L135.987 46.15L147.137 46.75L147.612 40.9L140.812 42.425ZM160.614 30.025L149.439 29.525L149.664 46.75L160.814 46.15L160.614 30.025ZM156.239 33.675L155.989 42.425L153.914 41.95L153.689 34.1L156.239 33.675ZM171.413 39.825L173.788 39.075L173.038 29.25H163.263L163.088 46.425L167.463 46.75L167.438 41.075L167.888 40.95L170.488 47.175L174.888 45.775L171.413 39.825ZM169.238 33.35L169.938 36.825L167.438 37.95L167.413 33.15L169.238 33.35ZM187.518 31.725L181.243 29.475L176.368 29.275L176.593 46.75L181.593 46.475L187.718 44.1L187.518 31.725ZM183.493 35.725L182.518 41.175L180.843 41.65L180.668 35.15L183.493 35.725Z" fill="#0F1134"/>
<path fill-rule="evenodd" clip-rule="evenodd" d="M56.0136 22H82.2573C82.7857 22.0014 83.3087 22.1068 83.7964 22.3102C84.284 22.5137 84.7269 22.8112 85.0996 23.1858C85.4723 23.5605 85.7675 24.0048 85.9685 24.4935C86.1695 24.9822 86.2722 25.5057 86.2708 26.0342V61.1667L82.0573 57.4438L79.6888 55.2504L77.18 52.919L78.2211 56.545H56.0136C53.8017 56.545 52 54.7433 52 52.5108V26.0342C51.9987 25.5057 52.1014 24.9822 52.3024 24.4935C52.5033 24.0048 52.7986 23.5605 53.1713 23.1858C53.544 22.8112 53.9868 22.5137 54.4745 22.3102C54.9622 22.1068 55.4851 22.0014 56.0136 22ZM73.4056 45.9865C73.9911 46.7348 74.6961 47.5758 74.6961 47.5758C78.9517 47.4401 80.6314 44.6946 80.6871 44.6035C80.6881 44.602 80.6886 44.6012 80.6886 44.6012C80.6886 38.2954 77.8686 33.1852 77.8686 33.1852C75.0506 31.0681 72.3667 31.1279 72.3667 31.1279L72.0925 31.4412C75.4217 32.4596 76.9698 33.9273 76.9698 33.9273C73.9687 32.2742 70.516 31.6288 67.1204 32.0864C67.0238 32.0864 66.9398 32.1004 66.8477 32.1156C66.8277 32.1189 66.8074 32.1223 66.7865 32.1256C66.1 32.1854 64.4365 32.441 62.3421 33.3604C61.6185 33.6923 61.1856 33.9273 61.1856 33.9273C61.1856 33.9273 62.8121 32.3812 66.3371 31.3608L66.1412 31.1258C66.1412 31.1258 63.4594 31.066 60.6394 33.1831C60.6394 33.1831 57.8194 38.2933 57.8194 44.5992C57.8194 44.5992 59.4623 47.4377 63.7892 47.5758C63.7892 47.5758 64.5148 46.6915 65.1023 45.9494C62.6142 45.2052 61.6742 43.6385 61.6742 43.6385C61.6742 43.6385 61.87 43.7746 62.2225 43.9684C62.2446 43.9944 62.272 44.0155 62.3029 44.0302C62.3299 44.0485 62.3569 44.0619 62.3842 44.0754C62.4151 44.0907 62.4463 44.1061 62.4781 44.1292C62.9381 44.3832 63.4155 44.6043 63.9067 44.7909C64.838 45.16 65.8013 45.4429 66.7844 45.636C69.4449 46.1469 72.197 45.8615 74.6961 44.8156C75.3825 44.56 76.1452 44.1848 76.9492 43.6571C76.9492 43.6571 75.97 45.2609 73.4056 45.9865ZM63.5934 40.6062C63.5934 39.4106 64.4736 38.4314 65.5909 38.4314C66.7061 38.4314 67.609 39.4085 67.5863 40.6062C67.5863 41.7977 66.7061 42.781 65.5909 42.781C64.4942 42.781 63.5934 41.7977 63.5934 40.6062ZM70.7423 40.6062C70.7423 39.4106 71.6225 38.4314 72.7398 38.4314C73.855 38.4314 74.7332 39.4085 74.7352 40.6062C74.7352 41.7977 73.855 42.781 72.7398 42.781C71.6431 42.781 70.7423 41.7977 70.7423 40.6062Z" fill="#0F1134"/>
</svg>
