<svg width="319" height="84" viewBox="0 0 319 84" fill="none" xmlns="http://www.w3.org/2000/svg">
<rect x="3" y="12.9185" width="315.633" height="71.0816" rx="13" fill="white"/>
<rect x="1.5" y="1.5" width="307.749" height="72.4286" rx="14.5" fill="#7351FF" stroke="white" stroke-width="3"/>
<path d="M15.6978 72.4286L49.8738 3H91.2447L57.9681 72.4286H15.6978Z" fill="#8C71FF"/>
<path d="M75.0561 72.4286L111.93 3H122.723L86.7479 72.4286H75.0561Z" fill="#8C71FF"/>
<path d="M95.1149 54.076L94.6949 25.18L88.2269 25.222H83.3549L80.7929 42.316L78.3149 25.222H73.7789V25.18L67.3109 25.222L67.7729 54.58L75.3749 54.076L74.7029 41.686L77.6849 52.816L84.6569 52.858L87.8069 40.426L87.4709 54.58L95.1149 54.076ZM99.1459 25.18L99.0199 54.58H105.866L107.21 25.726L99.1459 25.18ZM123.182 25.222L124.064 42.316L119.15 25.222H117.05V25.18L110.582 25.222L111.044 54.58L118.646 54.076L117.89 40.048L121.712 53.194L130.532 54.58L131.33 24.676L123.182 25.222ZM151.999 24.802L133.183 25.222V31.732L139.567 31.984L139.441 54.58H146.329L147.337 32.278L152.335 32.488L151.999 24.802ZM178.471 25.222L179.353 42.316L174.439 25.222H172.339V25.18L165.871 25.222L166.333 54.58L173.935 54.076L173.179 40.048L177.001 53.194L185.821 54.58L186.619 24.676L178.471 25.222ZM208.968 26.482L190.194 25.642L190.572 54.58L209.304 53.572L208.968 26.482ZM201.618 32.614L201.198 47.314L197.712 46.516L197.334 33.328L201.618 32.614ZM236.013 25.222L233.115 41.308L231.519 25.558L223.749 25.222L222.573 41.14L220.011 25.222H211.611L217.365 54.58L225.303 54.076L227.403 46.516L228.789 54.748L236.601 54.454L244.413 25.222H236.013Z" fill="white"/>
</svg>
