<svg width="274" height="89" viewBox="0 0 274 89" fill="none" xmlns="http://www.w3.org/2000/svg">
<rect x="7" y="8" width="267" height="81" rx="30" fill="white"/>
<rect width="267" height="81" rx="30" fill="#7351FF"/>
<path d="M41.95 43.425L41.7 34.675L48.275 35.8V30.25L37.325 31.025L37.125 47.15L48.275 47.75L48.75 41.9L41.95 43.425ZM61.7516 31.025L50.5766 30.525L50.8016 47.75L61.9516 47.15L61.7516 31.025ZM57.3766 34.675L57.1266 43.425L55.0516 42.95L54.8266 35.1L57.3766 34.675ZM71.6752 30.275L72.2002 40.45L69.2752 30.275H68.0252V30.25L64.1752 30.275L64.4502 47.75L68.9752 47.45L68.5252 39.1L70.8002 46.925L76.0502 47.75L76.5252 29.95L71.6752 30.275ZM86.1527 30.275L86.6777 40.45L83.7527 30.275H82.5027V30.25L78.6527 30.275L78.9277 47.75L83.4527 47.45L83.0027 39.1L85.2777 46.925L90.5277 47.75L91.0027 29.95L86.1527 30.275ZM98.0053 43.425L97.9303 40.825L102.205 40.7L102.23 37.575L97.8553 38.175L97.7553 34.675L104.33 35.8V29.8L93.3803 30.575L93.1803 47.4L104.33 47.975L104.805 41.9L98.0053 43.425ZM111.506 43.425L111.256 34.675L117.831 35.8V30.25L106.881 31.025L106.681 47.15L117.831 47.75L118.306 41.9L111.506 43.425ZM130.307 30.025L119.107 30.275V34.15L122.907 34.3L122.832 47.75H126.932L127.532 34.475L130.507 34.6L130.307 30.025ZM152.24 30.275L150.515 39.85L149.565 30.475L144.94 30.275L144.24 39.75L142.715 30.275H137.715L141.14 47.75L145.865 47.45L147.115 42.95L147.94 47.85L152.59 47.675L157.24 30.275H152.24ZM158.338 31L158.813 47.75H162.988L162.888 41.9L164.963 41.85L164.863 47.75H169.188L169.488 30.25L158.338 31ZM165.113 34.225L165.013 39.625L162.838 39.825L162.738 34.875L165.113 34.225ZM178.995 41.825L178.695 44.125L176.145 43.8L176.92 30.275L171.72 30.675L171.945 47.9L181.695 47.6L182.02 42.45L178.995 41.825ZM190.591 41.825L190.291 44.125L187.741 43.8L188.516 30.275L183.316 30.675L183.541 47.9L193.291 47.6L193.616 42.45L190.591 41.825ZM199.763 43.425L199.688 40.825L203.963 40.7L203.988 37.575L199.613 38.175L199.513 34.675L206.088 35.8V29.8L195.138 30.575L194.938 47.4L206.088 47.975L206.563 41.9L199.763 43.425ZM218.588 30.025L207.388 30.275V34.15L211.188 34.3L211.113 47.75H215.213L215.813 34.475L218.788 34.6L218.588 30.025Z" fill="white"/>
</svg>
